<?xml version="1.0" standalone="no"?>
<!DOCTYPE svg PUBLIC "-//W3C//DTD SVG 20010904//EN"
 "http://www.w3.org/TR/2001/REC-SVG-20010904/DTD/svg10.dtd">
<svg version="1.0" xmlns="http://www.w3.org/2000/svg"
 width="1538.000000pt" height="1538.000000pt" viewBox="0 0 1538.000000 1538.000000"
 preserveAspectRatio="xMidYMid meet">

<g transform="translate(0.000000,1538.000000) scale(0.100000,-0.100000)"
fill="#901937" stroke="none">
<path d="M9549 14433 c-68 -74 -157 -202 -267 -387 -114 -189 -271 -494 -297
-573 l-17 -53 40 -107 c62 -167 77 -251 77 -443 -1 -233 -39 -412 -130 -605
-49 -105 -288 -466 -542 -820 -99 -137 -265 -369 -370 -515 -421 -587 -727
-1055 -1000 -1530 -536 -934 -743 -1517 -743 -2095 0 -279 71 -552 216 -835
161 -313 393 -550 679 -692 161 -81 304 -124 505 -154 157 -22 492 -15 666 15
609 104 1249 413 1700 819 176 159 464 498 612 722 225 342 520 885 621 1145
82 207 95 276 95 480 0 155 -3 191 -22 260 -65 235 -443 1001 -679 1379 -169
270 -324 468 -523 667 -122 123 -282 259 -303 259 -35 0 -169 -192 -366 -523
-139 -234 -203 -353 -236 -440 -39 -105 -37 -112 52 -182 297 -233 602 -608
858 -1055 100 -175 459 -897 508 -1020 72 -184 102 -332 91 -446 -6 -61 -7
-63 -68 -114 -410 -347 -1159 -607 -2021 -702 -178 -19 -605 -17 -725 4 -285
51 -479 145 -645 312 -274 276 -408 720 -375 1241 26 412 131 747 330 1060 88
139 274 409 469 680 91 127 249 347 351 490 612 854 1071 1603 1349 2201 146
314 219 526 263 763 28 150 30 403 5 531 -24 121 -89 310 -107 310 -4 0 -27
-21 -51 -47z"/>
<path d="M8770 9584 c-36 -25 -141 -93 -235 -151 -229 -143 -421 -273 -476
-321 -24 -22 -57 -63 -73 -92 -25 -46 -28 -60 -24 -123 5 -114 53 -200 255
-464 207 -268 226 -295 265 -380 43 -92 50 -197 18 -284 -12 -33 -19 -63 -16
-66 3 -3 65 33 138 80 73 47 196 125 273 173 285 178 356 227 399 275 60 67
80 128 74 234 -4 71 -10 94 -45 166 -22 46 -71 125 -109 174 -356 465 -393
525 -402 645 -3 53 0 76 17 115 35 80 31 81 -59 19z"/>
<path d="M680 5222 c-38 -20 -80 -89 -80 -131 0 -14 9 -44 21 -67 22 -47 82
-84 133 -84 47 0 104 39 127 87 62 129 -74 261 -201 195z"/>
<path d="M1040 5221 c-19 -10 -46 -33 -58 -52 -32 -47 -28 -136 9 -175 39 -42
77 -57 132 -51 39 3 56 11 85 40 31 31 36 43 40 94 3 49 0 64 -20 93 -44 65
-122 87 -188 51z"/>
<path d="M5490 4978 c0 -29 9 -269 19 -533 10 -264 16 -504 12 -533 -10 -71
-31 -90 -114 -104 -82 -13 -235 2 -299 30 l-43 19 50 11 c28 6 65 14 83 18 28
5 33 10 29 27 -3 12 -11 74 -18 138 l-13 116 -83 6 c-81 5 -91 8 -271 95 -103
50 -214 100 -247 111 -129 42 -280 49 -453 20 -50 -9 -62 -14 -58 -28 2 -9 12
-74 22 -144 l18 -128 76 8 c185 20 348 2 489 -54 114 -45 114 -45 30 -92 -152
-83 -387 -142 -629 -156 -184 -11 -285 13 -334 78 -24 33 -26 107 -6 227 7 39
9 74 6 77 -5 5 -269 53 -272 49 -1 0 -9 -43 -18 -94 -27 -151 -54 -220 -106
-273 -41 -43 -51 -48 -119 -59 -128 -21 -246 5 -284 63 -9 14 -39 91 -67 173
-28 81 -65 174 -81 206 -35 70 -23 71 -191 -13 l-117 -59 40 -87 c88 -192 110
-317 74 -424 -43 -127 -220 -269 -430 -344 -27 -10 -51 -19 -53 -20 -4 -3 98
-249 107 -258 11 -11 139 36 236 86 176 91 318 225 387 363 l40 82 35 -24 c20
-13 54 -29 77 -35 58 -16 252 -13 332 6 82 19 175 67 213 110 l28 32 18 -29
c60 -102 228 -144 512 -127 227 13 371 51 584 155 73 36 133 63 134 62 98
-147 191 -198 393 -217 253 -23 459 33 534 147 71 106 76 193 49 822 -12 267
-21 500 -21 518 l0 32 -150 0 -150 0 0 -52z"/>
<path d="M6060 4943 c0 -49 9 -385 20 -748 11 -363 20 -663 20 -667 0 -5 68
-8 151 -8 l151 0 -6 88 c-3 48 -13 377 -22 732 -8 355 -17 655 -20 668 -4 22
-7 22 -149 22 l-145 0 0 -87z"/>
<path d="M4275 4926 c-37 -16 -83 -68 -91 -102 -4 -14 -4 -46 -1 -70 12 -114
160 -171 248 -97 84 71 78 189 -12 256 -34 25 -105 31 -144 13z"/>
<path d="M952 4655 l5 -75 -83 -25 c-194 -59 -362 -171 -431 -286 -95 -158
-78 -366 37 -478 92 -89 224 -126 427 -118 l132 4 59 -58 c49 -47 72 -61 128
-79 93 -28 213 -38 365 -29 300 18 437 104 485 304 31 131 7 350 -66 596 -12
41 -25 78 -29 82 -8 8 -268 -59 -284 -73 -4 -3 8 -61 27 -127 50 -174 69 -275
64 -349 -6 -103 -42 -127 -213 -139 -160 -12 -252 22 -275 103 -8 26 -44 623
-50 815 0 4 -68 7 -151 7 l-152 0 5 -75z m22 -452 c3 -42 6 -112 6 -156 l0
-79 -102 4 c-138 5 -197 35 -198 101 0 54 49 116 120 153 36 18 136 52 156 53
7 1 14 -30 18 -76z"/>
<path d="M10045 4716 c-37 -16 -83 -68 -91 -102 -4 -14 -4 -46 -1 -70 12 -114
160 -171 248 -97 84 71 78 189 -12 256 -34 25 -105 31 -144 13z"/>
<path d="M7735 4656 c-37 -16 -83 -68 -91 -102 -4 -14 -4 -46 -1 -70 12 -114
160 -171 248 -97 84 71 78 189 -12 256 -34 25 -105 31 -144 13z"/>
<path d="M12825 4413 c-128 -16 -166 -25 -161 -41 2 -10 12 -75 22 -145 l18
-128 76 8 c185 20 348 2 489 -54 114 -45 114 -45 30 -92 -168 -92 -422 -151
-669 -154 -154 -2 -196 7 -247 54 -48 46 -82 172 -104 387 l-13 124 -50 -6
c-28 -3 -91 -8 -139 -12 l-89 -7 6 -26 c3 -14 11 -107 17 -207 12 -178 12
-181 -10 -226 -31 -64 -72 -83 -176 -82 -85 1 -136 18 -155 53 -14 28 -13 86
6 207 9 58 14 107 12 110 -7 6 -268 48 -272 43 -2 -2 -14 -57 -25 -121 -38
-212 -79 -279 -179 -293 -80 -11 -142 3 -179 41 -39 38 -42 78 -17 217 9 48
14 90 12 93 -5 4 -271 55 -273 51 -1 -1 -10 -42 -19 -91 -36 -181 -71 -262
-128 -293 -50 -27 -236 -24 -300 4 -84 38 -98 85 -74 247 9 60 14 111 11 114
-2 3 -53 13 -112 23 -60 10 -120 20 -134 23 -26 5 -26 5 -44 -102 -20 -123
-46 -213 -75 -260 -31 -50 -76 -64 -221 -70 l-126 -5 -7 73 c-20 201 -121 376
-259 447 -41 21 -70 27 -137 31 -123 6 -182 -18 -276 -112 -118 -118 -182
-285 -171 -443 13 -178 114 -262 340 -283 55 -6 102 -12 104 -14 7 -7 -61 -54
-107 -74 -52 -22 -191 -55 -300 -72 -41 -6 -75 -12 -76 -13 -2 -1 11 -69 28
-150 l31 -148 56 6 c278 31 462 110 597 258 34 37 75 95 92 130 l32 64 157 7
c87 3 189 13 227 21 74 16 153 60 185 103 l20 27 16 -23 c66 -92 162 -124 369
-124 195 0 296 26 367 93 l37 34 32 -37 c63 -77 171 -103 359 -88 117 9 193
39 236 93 l28 35 46 -47 c60 -61 134 -84 273 -83 171 1 275 50 326 153 l20 41
16 -29 c21 -38 44 -63 87 -96 79 -60 197 -79 415 -66 228 13 371 51 585 155
73 36 133 63 134 62 71 -107 134 -157 234 -189 122 -38 355 -42 451 -8 44 15
99 50 123 76 17 20 18 20 95 -19 43 -21 111 -45 151 -54 95 -19 233 -19 289 0
223 79 307 356 184 606 -37 75 -136 174 -209 208 -52 24 -70 27 -163 27 -100
0 -108 -2 -169 -34 -36 -18 -88 -57 -115 -86 -48 -49 -68 -81 -178 -282 -58
-105 -113 -160 -169 -168 -58 -9 -199 10 -252 33 l-42 19 50 11 c28 6 65 14
83 18 28 5 33 10 29 27 -3 12 -11 74 -18 138 l-13 116 -83 6 c-81 5 -91 8
-271 95 -103 50 -214 100 -247 111 -101 33 -246 47 -350 34z m1814 -368 c57
-51 86 -147 61 -195 -25 -47 -150 -46 -262 2 l-47 20 40 80 c52 104 76 128
129 128 32 0 48 -7 79 -35z m-5487 -25 c33 -25 64 -100 73 -172 l7 -58 -81 0
c-81 0 -147 17 -163 43 -15 23 -8 91 13 134 33 69 101 93 151 53z"/>
<path d="M8200 4226 c-68 -30 -126 -58 -127 -63 -2 -5 13 -44 33 -87 40 -88
78 -228 89 -327 18 -173 -65 -322 -214 -381 -48 -19 -74 -22 -191 -22 -118 0
-142 3 -194 23 -80 32 -140 89 -162 153 -24 74 -15 197 25 312 17 50 28 93 24
97 -9 7 -240 89 -252 89 -11 0 -68 -151 -86 -230 -22 -91 -30 -262 -16 -335
48 -253 257 -396 601 -412 435 -19 711 193 761 587 11 91 7 158 -17 283 -27
134 -114 367 -138 367 -6 -1 -67 -25 -136 -54z"/>
<path d="M1576 3320 c-89 -28 -133 -140 -86 -218 56 -92 196 -97 250 -9 40 65
18 172 -42 211 -31 20 -86 27 -122 16z"/>
<path d="M1927 3316 c-69 -25 -97 -66 -97 -141 0 -95 61 -151 156 -143 172 14
180 258 9 292 -16 3 -47 -1 -68 -8z"/>
<path d="M3316 3320 c-89 -28 -133 -140 -86 -218 56 -92 196 -97 250 -9 40 65
18 172 -42 211 -31 20 -86 27 -122 16z"/>
<path d="M3667 3316 c-69 -25 -97 -66 -97 -141 0 -95 61 -151 156 -143 172 14
180 258 9 292 -16 3 -47 -1 -68 -8z"/>
<path d="M3099 2580 c-65 -11 -121 -43 -163 -91 -53 -63 -71 -125 -71 -249 1
-94 4 -112 30 -168 50 -111 135 -162 270 -162 134 0 212 46 267 158 31 62 33
73 33 172 0 127 -19 189 -75 253 -64 72 -179 107 -291 87z m149 -85 c83 -35
122 -101 130 -220 6 -107 -15 -185 -67 -236 -78 -78 -214 -78 -292 0 -90 89
-93 313 -6 407 55 60 158 81 235 49z"/>
<path d="M6279 2580 c-65 -11 -121 -43 -163 -91 -53 -63 -71 -125 -71 -249 1
-94 4 -112 30 -168 50 -111 135 -162 270 -162 134 0 212 46 267 158 31 62 33
73 33 172 0 127 -19 189 -75 253 -64 72 -179 107 -291 87z m149 -85 c83 -35
122 -101 130 -220 6 -107 -15 -185 -67 -236 -78 -78 -214 -78 -292 0 -90 89
-93 313 -6 407 55 60 158 81 235 49z"/>
<path d="M10299 2580 c-65 -11 -121 -43 -163 -91 -53 -63 -71 -125 -71 -249 1
-94 4 -112 30 -168 50 -111 135 -162 270 -162 134 0 212 46 267 158 31 62 33
73 33 172 0 127 -19 189 -75 253 -64 72 -179 107 -291 87z m149 -85 c83 -35
122 -101 130 -220 6 -107 -15 -185 -67 -236 -78 -78 -214 -78 -292 0 -90 89
-93 313 -6 407 55 60 158 81 235 49z"/>
<path d="M13289 2580 c-65 -11 -121 -43 -163 -91 -53 -63 -71 -125 -71 -249 1
-94 4 -112 30 -168 50 -111 135 -162 270 -162 134 0 212 46 267 158 31 62 33
73 33 172 0 127 -19 189 -75 253 -64 72 -179 107 -291 87z m149 -85 c83 -35
122 -101 130 -220 6 -107 -15 -185 -67 -236 -78 -78 -214 -78 -292 0 -90 89
-93 313 -6 407 55 60 158 81 235 49z"/>
<path d="M2060 2250 l0 -330 35 0 35 0 2 272 3 272 104 -272 104 -272 36 0 36
0 107 278 107 277 1 -277 0 -278 40 0 40 0 0 330 0 331 -61 -3 -62 -3 -101
-262 c-55 -144 -104 -259 -107 -255 -4 4 -51 123 -105 265 l-98 257 -58 0 -58
0 0 -330z"/>
<path d="M3630 2250 l0 -330 40 0 40 0 0 150 0 150 165 0 165 0 0 -150 0 -150
45 0 45 0 0 330 0 330 -45 0 -45 0 0 -140 0 -140 -165 0 -165 0 0 140 0 140
-40 0 -40 0 0 -330z"/>
<path d="M4372 2559 c-80 -40 -111 -126 -77 -214 21 -57 55 -82 175 -134 124
-53 159 -95 128 -157 -38 -79 -167 -95 -311 -38 -16 6 -18 2 -15 -37 3 -41 5
-44 43 -55 52 -16 202 -17 246 -3 84 29 129 89 129 174 0 81 -37 127 -135 170
-33 15 -82 36 -108 48 -58 25 -77 49 -77 95 0 46 16 71 55 88 44 18 86 18 160
-1 64 -17 75 -13 78 30 2 26 -3 30 -38 41 -22 7 -78 13 -125 13 -67 1 -94 -3
-128 -20z"/>
<path d="M4850 2250 l0 -330 185 0 185 0 0 35 0 35 -145 0 -145 0 0 115 0 115
135 0 135 0 0 40 0 40 -135 0 -135 0 0 100 0 100 145 0 145 0 0 40 0 40 -185
0 -185 0 0 -330z"/>
<path d="M5370 2250 l0 -330 35 0 35 0 2 262 3 262 170 -262 170 -262 48 0 47
0 0 330 0 330 -41 0 -41 0 4 -268 3 -268 -174 268 -175 268 -43 0 -43 0 0
-330z"/>
<path d="M6800 2339 c0 -276 5 -304 65 -364 47 -47 98 -65 185 -65 82 0 131
16 179 56 68 59 74 86 79 367 l4 247 -46 0 -46 0 0 -243 c0 -280 -4 -295 -81
-335 -36 -19 -54 -23 -103 -19 -62 6 -95 23 -130 71 -20 26 -21 43 -24 277
l-3 249 -40 0 -39 0 0 -241z"/>
<path d="M7490 2250 l0 -330 35 0 35 0 2 262 3 262 170 -262 170 -262 48 0 47
0 0 330 0 330 -41 0 -41 0 4 -268 3 -268 -174 268 -175 268 -43 0 -43 0 0
-330z"/>
<path d="M8497 2257 c-70 -178 -127 -327 -127 -331 0 -4 19 -6 42 -4 l42 3 37
95 36 95 130 3 129 3 38 -101 38 -100 45 0 c39 0 44 2 39 18 -4 9 -62 158
-129 329 l-122 313 -35 0 -35 0 -128 -323z m214 68 l47 -125 -99 0 -98 0 26
68 c14 37 35 95 46 129 12 34 23 60 26 57 3 -2 26 -61 52 -129z"/>
<path d="M9112 2559 c-80 -40 -111 -126 -77 -214 21 -57 55 -82 175 -134 124
-53 159 -95 128 -157 -38 -79 -167 -95 -311 -38 -16 6 -18 2 -15 -37 3 -41 5
-44 43 -55 52 -16 202 -17 246 -3 84 29 129 89 129 174 0 81 -37 127 -135 170
-33 15 -82 36 -108 48 -58 25 -77 49 -77 95 0 46 16 71 55 88 44 18 86 18 160
-1 64 -17 75 -13 78 30 2 26 -3 30 -38 41 -22 7 -78 13 -125 13 -67 1 -94 -3
-128 -20z"/>
<path d="M9632 2559 c-80 -40 -111 -126 -77 -214 21 -57 55 -82 175 -134 124
-53 159 -95 128 -157 -38 -79 -167 -95 -311 -38 -16 6 -18 2 -15 -37 3 -41 5
-44 43 -55 52 -16 202 -17 246 -3 84 29 129 89 129 174 0 81 -37 127 -135 170
-33 15 -82 36 -108 48 -58 25 -77 49 -77 95 0 46 16 71 55 88 44 18 86 18 160
-1 64 -17 75 -13 78 30 2 26 -3 30 -38 41 -22 7 -78 13 -125 13 -67 1 -94 -3
-128 -20z"/>
<path d="M11000 2571 c-81 -25 -158 -100 -187 -184 -25 -71 -24 -222 1 -296
24 -71 93 -141 161 -164 56 -20 184 -22 251 -6 43 11 44 12 44 51 0 34 -3 39
-17 34 -9 -4 -49 -12 -88 -18 -183 -28 -298 88 -282 285 16 186 152 278 325
218 l54 -18 16 34 c19 39 14 45 -48 63 -40 11 -193 12 -230 1z"/>
<path d="M11420 2250 l0 -330 40 0 40 0 0 330 0 330 -40 0 -40 0 0 -330z"/>
<path d="M11737 2257 c-70 -178 -127 -327 -127 -331 0 -4 19 -6 42 -4 l42 3
37 95 36 95 130 3 129 3 38 -101 38 -100 45 0 c39 0 44 2 39 18 -4 9 -62 158
-129 329 l-122 313 -35 0 -35 0 -128 -323z m214 68 l47 -125 -99 0 -98 0 26
68 c14 37 35 95 46 129 12 34 23 60 26 57 3 -2 26 -61 52 -129z"/>
<path d="M12200 2540 l0 -40 105 0 105 0 0 -290 0 -290 40 0 40 0 0 290 0 290
105 0 105 0 0 40 0 40 -250 0 -250 0 0 -40z"/>
<path d="M12820 2250 l0 -330 40 0 40 0 0 330 0 330 -40 0 -40 0 0 -330z"/>
<path d="M13820 2250 l0 -330 35 0 35 0 2 262 3 262 170 -262 170 -262 48 0
47 0 0 330 0 330 -41 0 -41 0 4 -268 3 -268 -174 268 -175 268 -43 0 -43 0 0
-330z"/>
</g>
</svg>
